<?xml version="1.0" encoding="utf-8"?>
<!-- Generator: Adobe Illustrator 23.0.0, SVG Export Plug-In . SVG Version: 6.00 Build 0)  -->
<svg version="1.1" id="图层_1" xmlns="http://www.w3.org/2000/svg" xmlns:xlink="http://www.w3.org/1999/xlink" x="0px" y="0px"
	 viewBox="0 0 1600 768" style="enable-background:new 0 0 1600 768;" xml:space="preserve">
<style type="text/css">
	.st0{fill:#FF8571;}
	.st1{fill:#FF9C92;}
	.st2{fill:#FF664D;}
	.st3{fill:#FFFFFF;}
	.st4{fill:#FF9C92;stroke:#FF9C92;stroke-width:7;stroke-miterlimit:10;}
</style>
<g>
	<path class="st0" d="M433.9,508.7L417,338l-0.1-0.2c-0.9-9.8-2.8-17.9-5.8-24.3v-41.5h47.2v41.5c-1.2,1.3-2.1,3-2.6,5.1
		c-0.6,2-0.9,4.5-0.9,7.5c0.1,1.2,0.1,3.1,0.2,5.4c0.1,0.9,0.1,1.7,0.2,2.3l4.5,77.6L471,272.1h26.8l12.8,139.5L514,339
		c0.1-1.9,0.1-3.9,0.2-6c0.1-2.1,0.1-3.3,0.1-3.5c0-4.4-0.3-7.7-0.9-10c-0.6-2.3-1.7-4.3-3.2-5.8v-41.5h41.5v41.5
		c-1.2,2-2.2,4.3-2.9,6.9c-0.7,2.6-1.3,6.5-1.7,11.4l-17,176.8h-38.3L482,386.2l-10,122.5H433.9z"/>
	<path class="st0" d="M561.7,508.7v-42c1.7-1.8,2.9-4.2,3.6-7.3c0.7-3.1,1-7.9,1-14.5V335.2c0-6.5-0.3-11.4-1-14.5
		c-0.7-3.1-1.9-5.5-3.6-7.2v-41.5h92.6v78.4h-35.4v-6.7c0-8.5-0.8-14.2-2.3-17.2c-1.5-3-4.4-4.4-8.6-4.4h-3.3v42h24.5V410h-24.5
		l0.1,47.7c0.3,0.1,0.7,0.2,1.2,0.2c0.5,0.1,1.2,0.1,2,0.1c4.1,0,6.9-2,8.6-6c1.7-4,2.5-11,2.5-21.1c0-2.2,0-3.9,0-5.1
		c0-1.2-0.1-2.4-0.1-3.5h35.4v86.3H561.7z"/>
	<path class="st0" d="M665.6,508.7v-42c1.1-0.8,2.2-3,3.1-6.4c0.9-3.4,1.7-7.8,2.2-13.1l16.7-175.2h54.5L761,447.3
		c0.7,5.4,1.5,9.8,2.5,13.1c1,3.4,2.2,5.5,3.4,6.3v42h-48.2v-42c1.2-0.8,2.2-2.4,3-4.7c0.8-2.3,1.1-5,1.1-8.1c0-0.5-0.1-1.5-0.3-3
		c-0.2-1.5-0.3-2.6-0.4-3.3h-18.8c-0.1,0.7-0.2,1.9-0.3,3.6c-0.1,1.7-0.2,2.9-0.2,3.7c0,3.5,0.4,6.2,1.3,8.2
		c0.9,1.9,2.3,3.1,4.1,3.7l0.1,42H665.6z M706.3,405.5h12.8l-7-84L706.3,405.5z"/>
	<path class="st0" d="M820,445c0,7.8,0.3,13,1,15.7c0.7,2.7,1.9,4.7,3.7,6.1v42h-47.5v-42c1.7-1.7,2.8-4,3.5-7.1c0.7-3.1,1-8,1-14.7
		V335.2c0-6.7-0.3-11.6-1-14.6c-0.7-3-1.8-5.3-3.5-7v-41.5h54.1c15.9,0,27.1,4.9,33.6,14.6c6.4,9.7,9.7,26.1,9.7,49.1
		c0,14.9-1.5,26.8-4.4,35.5c-3,8.8-7.5,15-13.7,18.6c5.9,3,9.9,7.4,12.2,13.3c2.2,5.9,3.5,17.1,3.6,33.8c0.1,0.6,0.1,1.5,0.1,2.5
		c0.2,15.3,1.7,24.4,4.6,27.2v42h-41.1c-1.4-10.5-2.2-27.5-2.3-51c0-4.4,0-7.7-0.1-10c-0.1-13.5-0.9-22.1-2.5-25.8
		c-1.6-3.7-4.5-5.6-8.8-5.6H820V445z M820,369.6h3.9c4.4,0,7.5-1.8,9.1-5.3c1.7-3.5,2.5-10.1,2.5-19.6c0-9.2-0.9-15.5-2.8-18.8
		c-1.9-3.3-5.4-5-10.7-5h-2V369.6z"/>
	<path class="st0" d="M941.6,508.7v-42c1.1-0.8,2.2-3,3.1-6.4c0.9-3.4,1.7-7.8,2.2-13.1l16.7-175.2h54.5l18.9,175.2
		c0.7,5.4,1.5,9.8,2.5,13.1c1,3.4,2.2,5.5,3.4,6.3v42h-48.2v-42c1.2-0.8,2.2-2.4,3-4.7c0.8-2.3,1.1-5,1.1-8.1c0-0.5-0.1-1.5-0.3-3
		c-0.2-1.5-0.3-2.6-0.4-3.3h-18.8c-0.1,0.7-0.1,1.9-0.3,3.6c-0.1,1.7-0.2,2.9-0.2,3.7c0,3.5,0.4,6.2,1.3,8.2
		c0.9,1.9,2.3,3.1,4.1,3.7l0.1,42H941.6z M982.2,405.5H995l-7-84L982.2,405.5z"/>
	<path class="st0" d="M1141.7,367.7V445c0,7.5,0.3,12.6,0.9,15.5c0.6,2.9,1.7,5,3.4,6.2v42h-37.3v-42c1.7-1.7,2.8-4,3.5-7.1
		c0.7-3.1,1-8,1-14.7V335.2c0-6.7-0.3-11.6-1-14.6c-0.7-3-1.8-5.3-3.5-7v-41.5h50.8l11.3,101.1l11.3-101.1h49.8v41.5
		c-1.7,1.6-3,3.9-3.7,6.9c-0.7,3.1-1.1,8-1.1,14.7V445c0,6.8,0.4,11.8,1.1,14.8c0.7,3,1.9,5.3,3.7,7v42h-44.6v-42
		c1.5-1.2,2.6-3.3,3.2-6.2c0.6-2.9,0.9-8.1,0.9-15.5v-77.3l-17,141h-15L1141.7,367.7z"/>
	<path class="st0" d="M1243.4,508.7v-42c1.1-0.8,2.2-3,3.1-6.4c0.9-3.4,1.7-7.8,2.2-13.1l16.7-175.2h54.5l18.9,175.2
		c0.7,5.4,1.5,9.8,2.5,13.1c1,3.4,2.2,5.5,3.4,6.3v42h-48.2v-42c1.2-0.8,2.2-2.4,3-4.7c0.8-2.3,1.1-5,1.1-8.1c0-0.5-0.1-1.5-0.3-3
		c-0.2-1.5-0.3-2.6-0.4-3.3h-18.8c-0.1,0.7-0.1,1.9-0.3,3.6c-0.1,1.7-0.2,2.9-0.2,3.7c0,3.5,0.4,6.2,1.3,8.2
		c0.9,1.9,2.3,3.1,4.1,3.7l0.1,42H1243.4z M1284,405.5h12.8l-7-84L1284,405.5z"/>
	<path class="st0" d="M1356.5,488.1v-65h37.5v13.1c0,10.2,0.6,17.1,1.7,20.7c1.2,3.6,3.2,5.4,6.1,5.4c2.5,0,4.4-1.8,5.9-5.4
		c1.4-3.6,2.1-8.7,2.1-15.2c0-12.2-6.1-21.8-18.2-28.8c-2.3-1.3-4.1-2.4-5.3-3.1c-13.2-8-21.7-16.6-25.7-26
		c-4-9.3-5.9-23.1-5.9-41.2c0-25.8,3.6-44.8,10.8-56.9c7.2-12.1,18.4-18.2,33.6-18.2c8.7,0,16.9,2.2,24.6,6.5
		c7.7,4.3,15,10.9,21.8,19.7v58.8h-36.3v-10.7c0-7.6-0.7-13.3-2-17.3c-1.4-4-3.3-6-5.9-6c-2.6,0-4.6,1.4-5.9,4.2
		c-1.3,2.8-2,6.9-2,12.4c0,10.6,6.3,19.3,19,26.3c1.1,0.6,1.9,1.1,2.4,1.4c14.1,7.9,23.3,17,27.3,27.4c4.1,10.4,6.1,26.5,6.1,48.4
		c0,25.5-3.8,44.4-11.3,56.8c-7.5,12.3-19,18.5-34.5,18.5c-9.5,0-18.3-2.2-26.2-6.6C1368.7,502.6,1362,496.3,1356.5,488.1z"/>
	<path class="st0" d="M1504.3,372.9l11.4-44c0.9-3.5,1.6-7,2-10.5c0.4-3.5,0.7-7.6,0.7-12.5v-2.2v-31.6h43.2v41.5
		c-0.8,1-1.6,2.4-2.4,4c-0.8,1.6-1.5,3.6-2.3,5.8l-19.8,56.4l20.2,70.3c1.4,4.8,2.5,8.3,3.5,10.7c1,2.4,2,4.4,3.2,5.9v42h-45.6
		v-30.6c0-8.3-0.9-16.5-2.8-24.6c-0.3-1.2-0.5-2.1-0.6-2.6l-10.7-48.2V445c0,7.8,0.3,13.1,1,15.9c0.7,2.8,1.7,4.8,3.3,5.9v42h-47.3
		v-42c1.7-1.7,2.8-4,3.5-7.1c0.7-3.1,1-8,1-14.7V335.2c0-6.7-0.3-11.6-1-14.6c-0.7-3-1.8-5.3-3.5-7v-41.5h47.3v41.5
		c-1.6,1.2-2.7,3.2-3.3,6c-0.6,2.7-0.9,8-0.9,15.6V372.9z"/>
</g>
<path class="st1" d="M1254.2,572.4l7.1-29.8l6.8-18.1l15.2,5.7l-6.8,18.1l-14.2,27.2L1254.2,572.4z M1258.2,596.5l-14.6-4.6
	l4.5-14.3l14.6,4.6L1258.2,596.5z"/>
<g>
	<path class="st2" d="M275.6,569.6c0-31.2,25.3-56.6,56.6-56.6c5.3,0,10.4,0.7,15.2,2.1V275.3c0-12.5-10.1-22.6-22.6-22.6H55
		c-9.5,0-17.2,7.7-17.2,17.2v300.9c0,12.5,10.1,22.6,22.6,22.6h220.4C277.4,586.1,275.6,578.1,275.6,569.6z M100,511.4l-19.7-80.1
		l5-18.2l6.4-58.2l4.5,51.7l17.5-4.5l-20.3,28.1l11.7,58.5l87.4,40.2l1.2-0.7l3.2-43.3l-20.6-44.4l13.5-58.7l103.1,29l-17.7,72.3
		l8.2-4.5l21.1-64.1l-23.5,97.7l-90.6,47.2L100,511.4z"/>
	<g>
		<path class="st0" d="M357.5,550.4v3.8c-1.8,0.3-3.4,1.2-4.8,2.9c-1,1.2-2.5,4-4.5,8.5l-16.9,37.6H330L313.2,564
			c-2-4.7-3.4-7.5-4.1-8.3c-0.7-0.8-2-1.3-3.9-1.6v-3.8h23.6v3.8H328c-2.1,0-3.6,0.3-4.4,0.8c-0.6,0.4-0.8,0.9-0.8,1.6
			c0,0.4,0.1,0.9,0.3,1.5c0.2,0.6,0.8,2.2,2,4.8l9.4,19.8c0.4,0.9,1.7,0.9,2.1,0l8.7-19.5c1.2-2.6,1.9-4.4,2.1-5.3
			c0.3-0.9,0.4-1.7,0.4-2.3c0-0.7-0.4-1.1-2.9-1.1c-1.2,0-1.2,0-3.5-0.3v-3.8H357.5z"/>
	</g>
</g>
<g>
	<path class="st1" d="M700,569.5c0-13.7,9.9-21.7,20.5-21.7c10.6,0,20.4,8,20.4,21.7c0,13.7-9.9,21.6-20.4,21.6
		C709.8,591.1,700,583.1,700,569.5z M727.6,569.5c0-6.9-2.2-11.3-7.1-11.3c-4.9,0-7.1,4.4-7.1,11.3c0,6.8,2.2,11.2,7.1,11.2
		C725.4,580.6,727.6,576.3,727.6,569.5z"/>
	<path class="st1" d="M749.2,548.8h10.7l0.9,5.2h0.3c3.5-3.3,7.7-6.2,13.4-6.2c9.1,0,13,6.5,13,16.8v25.6h-13.1v-24
		c0-5.7-1.5-7.3-4.9-7.3c-2.9,0-4.7,1.3-7.3,3.7v27.6h-13V548.8z"/>
	<path class="st1" d="M824.9,571l-16.5-34.9h14l4.6,12c1.5,4.1,2.9,7.8,4.4,12.1h0.3c1.5-4.2,3-8,4.6-12.1l4.6-12h13.8L838,571v19.1
		h-13.1V571z"/>
	<path class="st1" d="M852,569.5c0-13.7,9.9-21.7,20.5-21.7c10.6,0,20.4,8,20.4,21.7c0,13.7-9.9,21.6-20.4,21.6
		C861.8,591.1,852,583.1,852,569.5z M879.6,569.5c0-6.9-2.2-11.3-7.1-11.3c-4.9,0-7.1,4.4-7.1,11.3c0,6.8,2.2,11.2,7.1,11.2
		C877.4,580.6,879.6,576.3,879.6,569.5z"/>
	<path class="st1" d="M900.7,574.3v-25.6h13.1v24c0,5.7,1.5,7.3,4.9,7.3c2.9,0,4.8-1.2,7-4.2v-27.1h13.1v41.3h-10.7l-1-5.7h-0.3
		c-3.5,4.1-7.4,6.7-13.1,6.7C904.6,591.1,900.7,584.6,900.7,574.3z"/>
	<path class="st1" d="M949.3,548.8h10.7l0.9,7.2h0.3c3.1-5.5,7.7-8.2,11.9-8.2c2.5,0,3.9,0.4,5.1,0.9l-2.2,11.1
		c-1.5-0.4-2.7-0.7-4.6-0.7c-3.1,0-6.8,2-9,7.4v23.6h-13V548.8z"/>
	<path class="st1" d="M1027.1,577.7h-16.2l-3.2,12.4h-13.4l17-54h15.7l17,54h-13.8L1027.1,577.7z M1024.6,567.6l-1.2-4.6
		c-1.5-5.4-2.9-11.8-4.3-17.4h-0.3c-1.3,5.7-2.8,12-4.2,17.4l-1.2,4.6H1024.6z"/>
	<path class="st1" d="M1043,548.8h13.2l5.1,19c1,4.1,2.1,8.4,3.2,12.7h0.4c1-4.4,2.1-8.6,3.1-12.7l5.1-19h12.6l-13.5,41.3h-15.1
		L1043,548.8z"/>
	<path class="st1" d="M1088.4,578.5c0-8.7,6.9-13.4,23.2-15.2c-0.3-3.3-2.1-5.3-6.3-5.3c-3.3,0-6.8,1.3-11,3.6l-4.6-8.5
		c5.5-3.3,11.5-5.4,18-5.4c10.8,0,16.9,6,16.9,18.9v23.5h-10.7l-1-4.1h-0.3c-3.5,3-7.4,5.2-12,5.2
		C1093.1,591.1,1088.4,585.4,1088.4,578.5z M1111.6,577.8v-6.6c-8.2,1.1-10.8,3.4-10.8,6.3c0,2.4,1.8,3.6,4.5,3.6
		C1108,581.1,1109.7,579.8,1111.6,577.8z"/>
	<path class="st1" d="M1134.9,574.8v-15.9h-5.7v-9.6l6.4-0.5l1.5-10.9h10.9v10.9h9.9v10.1h-9.9v15.8c0,4.6,2.2,6.4,5.3,6.4
		c1.3,0,2.8-0.4,3.8-0.7l2.1,9.3c-2.2,0.7-5.2,1.5-9.5,1.5C1139.1,591.1,1134.9,584.6,1134.9,574.8z"/>
	<path class="st1" d="M1162.4,578.5c0-8.7,6.9-13.4,23.2-15.2c-0.3-3.3-2.1-5.3-6.3-5.3c-3.3,0-6.8,1.3-11,3.6l-4.6-8.5
		c5.5-3.3,11.5-5.4,18-5.4c10.8,0,16.9,6,16.9,18.9v23.5H1188l-1-4.1h-0.3c-3.5,3-7.4,5.2-12,5.2
		C1167.1,591.1,1162.4,585.4,1162.4,578.5z M1185.6,577.8v-6.6c-8.2,1.1-10.8,3.4-10.8,6.3c0,2.4,1.8,3.6,4.5,3.6
		C1181.9,581.1,1183.7,579.8,1185.6,577.8z"/>
	<path class="st1" d="M1208.8,548.8h10.7l0.9,7.2h0.3c3.1-5.5,7.7-8.2,11.9-8.2c2.5,0,3.9,0.4,5.1,0.9l-2.2,11.1
		c-1.5-0.4-2.7-0.7-4.6-0.7c-3.1,0-6.8,2-9,7.4v23.6h-13V548.8z"/>
</g>
<line class="st4" x1="411.5" y1="568.8" x2="662.5" y2="568.8"/>
<line class="st4" x1="1313.1" y1="568.8" x2="1564" y2="568.8"/>
</svg>
