<?xml version="1.0" encoding="utf-8"?>
<!-- Generator: Adobe Illustrator 23.0.0, SVG Export Plug-In . SVG Version: 6.00 Build 0)  -->
<svg version="1.1" id="图层_1" xmlns="http://www.w3.org/2000/svg" xmlns:xlink="http://www.w3.org/1999/xlink" x="0px" y="0px"
	 viewBox="0 0 1366 768" style="enable-background:new 0 0 1366 768;" xml:space="preserve">
<style type="text/css">
	.st0{fill:#FF8571;}
	.st1{fill:#FF9C92;}
	.st2{fill:#FF664D;}
	.st3{fill:#FFFFFF;}
</style>
<path class="st0" d="M470.4,382.1h36.5v10.7h28.7v18.9h-28.7v5.8h33.4v-35.4h34.2c0,11.5,0,23.3,0,35.4H590
	c-3.1-7.1-7.5-15.4-13.2-24.7l20.2-10.7c4.7,4.9,10.1,14,16.3,27.2l-16.3,8.2h16.3v26.4h-38.8c0,13.2,0.5,22.2,1.6,27.2
	c1-2.7,3.9-9.3,8.5-19.8l28,15.6c-6.7,19.2-15.8,40.1-27.2,62.6c2.1,8.2,9.3,4.9,21.8-9.9l9.3,42.8c-13,14.3-24.9,20.9-35.7,19.8
	c-7.3-1.1-14-7.1-20.2-18.1c-6.2,8.8-11.4,15.1-15.5,18.9l-14.8-15.6l-17.1,15.6c-8.8-9.9-17.6-18.7-26.4-26.4l12.4-9.1h-24.9
	l9.3,9.1c-5.7,6.6-16.1,15.6-31.1,27.2l-24.9-25.5l3.1-1.6c7.8-2.2,14-5.2,18.6-9.1h-20.2v-23.9h25.6V518h-20.2v-16.5h20.2v-4.9
	h-15.5v-46.9h97.9v46.9h-15.5v4.9h18.6V518h-18.6v5.8h21v9.9c1.6-2.2,3.1-4.7,4.7-7.4c-3.6-26.4-5.7-53.8-6.2-82.4H429.2v-26.4h41.2
	v-5.8h-34.2v-18.9h34.2V382.1z M468.1,461.2v6.6h7v-6.6H468.1z M475.1,476h-7v6.6h7V476z M483.6,496.6v4.9h9.3v-4.9H483.6z
	 M492.9,518h-9.3v5.8h9.3V518z M508.5,461.2h-7.8v6.6h7.8V461.2z M508.5,476h-7.8v6.6h7.8V476z M531.8,547.7h-17.1
	c3.1,3.3,6.5,6.3,10.1,9.1C526.3,555.1,528.7,552.1,531.8,547.7z"/>
<path class="st0" d="M696.5,383.8h41.9v48.6H806v42h-67.6V537h78.5v39.5H626.5V537h69.9V383.8z"/>
<path class="st0" d="M1005.6,388.7v187.8H966v-9.1h-93.2v9.9h-39.6V388.7H1005.6z M872.8,429.9v98H966v-98H872.8z"/>
<path class="st0" d="M1136.9,440.6h72.2v15.6h-72.2v4.9h58.3v59.3h-56.7v5.8h74.6v30.5h-74.6v23.9h-36.5v-23.9h-76.1v-31.3h76.1
	v-4.9h-57.5v-59.3h54.4V434h-60.6v-47.8h164.7V434h-66V440.6z M1081,407.6h-10.1v8.2h10.1V407.6z M1081,478.5v5.8h79.2v-5.8H1081z
	 M1160.2,498.2H1081v5.8h79.2V498.2z M1114.4,407.6v8.2h9.3v-8.2H1114.4z M1166.4,407.6h-10.1v8.2h10.1V407.6z"/>
<path class="st0" d="M1262,509l-1.2-110.1l7.9-68.8l57.9,6.7l-7.9,68.8l-26.2,107L1262,509z M1296.7,589.5l-55-3.6l3.5-53.7l55,3.6
	L1296.7,589.5z"/>
<path class="st1" d="M456.4,311.9l11.4-3.2l0.7,12.8c-3.6,1.1-11,3-22.2,5.8c-3.4,0.9-5.7,1.5-7.1,1.9l-3.7-12.2
	c2.2-0.4,3.9-1.4,5.1-2.9c2.5-3,4.5-5.7,6.1-8l-7.7,1.9l-5.7-12.8c1.1-0.4,2.1-1.3,3-2.6c4-5.8,8.5-13.7,13.5-23.7l12.5,5.8
	c-3.8,6.6-7.9,13.2-12.1,19.6l3.4-0.3c0.4-0.6,1.1-1.6,2-2.9c1.8-2.8,3.3-5,4.4-6.7l7.7,4.2c7.4-7.1,12.6-13.6,15.5-19.6h14.1
	c6.1,10.9,13,18,20.9,21.2l-4.7,14.8c-0.2,0-0.5-0.1-0.7-0.3c-2.2-1.1-3.8-1.9-4.7-2.6v4.5h-32.7v-4.8c-0.2,0.2-0.6,0.5-1,1
	c-1.3,1.5-2.4,2.5-3,2.9l-5.1-5.8c-0.5,0.4-1,1.2-1.7,2.2C461.4,306.5,458.7,309.8,456.4,311.9z M468.5,337.9
	c-7.6,2.6-17.4,5.1-29.3,7.7l-3.7-12.2c7.6-1.7,18.1-4.6,31.3-8.7L468.5,337.9z M471.2,309.7h41.1v36.9h-15.2v-2.2h-10.8v2.2h-15.2
	V309.7z M490.8,283.4c-1.1,1.5-2.7,3.5-4.7,6.1c-0.9,1.3-1.6,2.1-2,2.6h13.1C495.6,290.1,493.5,287.2,490.8,283.4z M486.4,324.4v5.8
	h10.8v-5.8H486.4z"/>
<path class="st1" d="M544.6,290.4v56.1h-15.8v-35l-3.7,3.5l-5.7-16c8.8-11.5,14.4-21.5,16.8-29.8l16.8,4.2
	C551.7,276.8,548.9,282.5,544.6,290.4z M560.8,269.2l16.5,1.6c-0.2,0.4-0.5,1.1-0.7,1.9c-0.9,2.6-1.7,4.3-2.4,5.1h28.6v14.4
	l-5.1,13.5l-12.1-2.6l4-10.9h-5.4V336c1.6,7.9-4.5,11.2-18.2,9.9l-4-15.4c6.1,0.6,8.6-0.2,7.7-2.6v-35.3h-3
	c-0.2,0.4-0.8,1.1-1.7,1.9c-2.7,3-4.9,5.6-6.7,7.7l-13.1-8C553.2,286.1,558.3,277.8,560.8,269.2z M560.5,336l-14.1-3.5
	c3.8-13,6.1-23.3,6.7-30.8l13.5,3.5C564.3,319.7,562.2,330,560.5,336z M599.5,306.5c2.9,11.1,4.5,19.9,4.7,26.3l-13.8,4.2
	c-0.9-10.9-2.2-20.3-4-28.2L599.5,306.5z"/>
<path class="st1" d="M621.1,268.9h16.8c-0.2,1.5-0.7,5.2-1.3,11.2h8.8v8.3c3.1-4.9,6.1-11.4,8.8-19.6l16.5,1.9
	c-0.2,0.4-0.5,1.3-0.7,2.6c-0.7,1.9-1.3,3.7-2,5.5h19.5v43c0.2,10.7-1.8,17.5-6.1,20.5c-3.8,3.4-12.1,4.7-24.9,3.8l-5.1-15.1
	c0.2,0,0.7,0,1.3,0c8.8,0.4,13.6,0.3,14.5-0.3c3.1-1.1,4.5-4.3,4-9.6l-15.2,5.1c-1.3-4.1-3.4-9.1-6.1-15.1l-1,1.3l-3.7-3.8v33.4
	h-20.2v3.2h-15.2v-65.1h9.4L621.1,268.9z M630.2,294.9h-5.1v8.3h5.1V294.9z M630.2,318.6h-5.1v8.3h5.1V318.6z M661.1,294.6
	c-2.2,4.3-4.4,7.7-6.4,10.3l7.1-3.2c4,5.6,7.2,11,9.4,16.4c0-6.8,0-14.6,0-23.4H661.1z"/>
<path class="st1" d="M739.9,273.4l19.9,2.9c-0.9,8.6-3.1,19-6.7,31.4h20.2v13.8h-24.9c-7.6,12-22.9,20.4-45.8,25.3l-11.1-15.7
	c17.3-2.4,28.3-5.6,33-9.6h-30.3v-13.8h16.5c-0.2,0-0.6-0.2-1-0.6c-5.8-3.2-10.3-5.6-13.5-7.1l11.1-12.5c7.2,3.6,14.1,7.7,20.9,12.2
	l-5.1,8h9.4C736.5,297.1,739,285.6,739.9,273.4z M708.6,278.9l10.8-10.3c8.3,5.1,14.7,9.4,19.2,12.8L727.5,293
	C723.2,289.1,716.9,284.4,708.6,278.9z M749.3,323.1c9.4,2.8,18.5,6,27.3,9.6l-7.4,14.8c-9.4-4.9-19.2-8.6-29.3-10.9L749.3,323.1z"
	/>
<path class="st1" d="M816.7,268.9l16.8,1.3l-1,1.6h21.2v8.7l-4.4,5.1h10.4v20.9h-7.4l9.1,7.4c-2.7,3.4-6,6.8-9.8,10.3
	c2.9,3.2,6.5,6.8,10.8,10.9l-9.1,11.2c-1.8-1.3-4.4-3.5-7.7-6.7c-0.7-0.6-1.2-1.2-1.7-1.6c0,7.1-7.5,9.8-22.6,8.3l-4-6.4
	c-0.5,0.2-1.2,0.5-2.4,1c-4,1.9-6.7,3-8.1,3.2l-5.7-6.1v8.3h-14.8v-33.7l-3.7,3.2l-4.7-17.6c6.3-9.8,11.1-19.4,14.5-28.5l15.8,2.6
	c-0.7,1.7-1.6,4.2-2.7,7.4c-1.3,3-1.8,4.4-1.3,4.2C808.9,279.6,813.1,274.7,816.7,268.9z M801.2,291.1v20.5c4.5-1.3,8.3-3,11.4-5.1
	h-7.1v-12.5L801.2,291.1z M822.4,312.2c-5.6,3.4-11.1,5.9-16.5,7.4l-4.7-5.5v9.3c9.6-2.4,17.1-5.7,22.2-9.9L822.4,312.2z
	 M827.1,320.6c-3.1,2.6-9.9,6.2-20.2,10.9l-5.7-6.7v10.9c12.1-4.1,21-8.7,26.6-13.8L827.1,320.6z M825.8,294.6H820v3.2h3
	L825.8,294.6z M825.4,283l-3,2.9h8.8l2.7-2.9H825.4z M830.1,332.4c-2,1.7-4,3.2-6.1,4.5C828.6,337.8,830.6,336.3,830.1,332.4z
	 M847.7,306.5h-11.8c2,2.4,3.7,4.7,5.1,7.1C842.7,311.8,845,309.5,847.7,306.5z M845,294.6h-4.7l-2.7,3.2h7.4V294.6z"/>
<path class="st2" d="M288.3,572.4c0-31.8,25.8-57.6,57.6-57.6c5.4,0,10.6,0.7,15.5,2.1V272.5c0-12.7-10.3-23-23-23H63.5
	c-9.7,0-17.5,7.8-17.5,17.5v306.6c0,12.7,10.3,23,23,23h224.5C290.2,589.2,288.3,581.1,288.3,572.4z M109.4,513l-20.1-81.6l5.1-18.5
	l6.5-59.3l4.6,52.7l17.9-4.6l-20.7,28.6l11.9,59.6l89,40.9l1.3-0.7l3.3-44.1l-21-45.2l13.7-59.8l105.1,29.6l-18,73.7l8.3-4.6
	l21.5-65.3L294,514l-92.3,48.1L109.4,513z"/>
<g>
	<path class="st0" d="M371.7,552.8v3.8c-1.8,0.3-3.4,1.3-4.9,2.9c-1,1.2-2.6,4.1-4.6,8.7L345,606.5h-1.2l-17.2-39.8
		c-2.1-4.8-3.5-7.6-4.2-8.5s-2-1.4-4-1.6v-3.8h24v3.8h-0.8c-2.2,0-3.6,0.3-4.4,0.8c-0.6,0.4-0.8,0.9-0.8,1.6c0,0.4,0.1,1,0.3,1.6
		c0.2,0.6,0.9,2.2,2,4.9l9.6,20.2c0.4,0.9,1.7,0.9,2.1,0l8.9-19.9c1.2-2.7,1.9-4.5,2.2-5.4c0.3-0.9,0.4-1.7,0.4-2.3
		c0-0.7-0.5-1.1-2.9-1.1c-1.2,0-1.2,0-3.6-0.3v-3.8H371.7z"/>
</g>
<g>
	<path class="st1" d="M931.4,613.6h8.4c5.4,0,9.3,1.6,9.3,6.5c0,2.5-1.3,4.9-3.6,5.7v0.2c2.9,0.7,5,2.7,5,6.2c0,5.2-4.3,7.7-10,7.7
		h-9V613.6z M939.3,624.4c3.6,0,5.2-1.4,5.2-3.7c0-2.5-1.7-3.5-5.1-3.5H936v7.2H939.3z M939.9,636.1c3.8,0,6-1.4,6-4.3
		c0-2.8-2.1-4-6-4H936v8.3H939.9z"/>
	<path class="st1" d="M954.9,647.4l0.8-3.6c0.4,0.1,0.9,0.3,1.4,0.3c2.1,0,3.3-1.4,3.9-3.4l0.4-1.2l-7.7-19.4h4.7l3.4,9.6
		c0.6,1.7,1.2,3.7,1.7,5.6h0.2c0.5-1.8,1-3.8,1.5-5.6l2.9-9.6h4.4l-7.1,20.5c-1.6,4.4-3.7,7.2-8,7.2
		C956.4,647.8,955.7,647.6,954.9,647.4z"/>
	<path class="st1" d="M988.4,613.6h4.6v10.5h10.6v-10.5h4.6v26.2h-4.6v-11.6h-10.6v11.6h-4.6V613.6z"/>
	<path class="st1" d="M1015.2,629.9c0-6.5,4.4-10.3,9.3-10.3c4.9,0,9.3,3.8,9.3,10.3c0,6.5-4.4,10.3-9.3,10.3
		C1019.7,640.2,1015.2,636.4,1015.2,629.9z M1029.2,629.9c0-3.9-1.7-6.6-4.6-6.6s-4.6,2.6-4.6,6.6c0,3.9,1.7,6.5,4.6,6.5
		S1029.2,633.9,1029.2,629.9z"/>
	<path class="st1" d="M1038.3,620.1h4.6l2.4,10.2c0.4,1.9,0.7,3.7,1,5.7h0.2c0.4-1.9,0.8-3.8,1.2-5.7l2.6-10.2h4.2l2.6,10.2
		c0.5,1.9,0.9,3.7,1.3,5.7h0.2c0.4-1.9,0.7-3.8,1.1-5.7l2.4-10.2h4.3l-5,19.7h-5.5l-2.3-9.2c-0.4-1.8-0.8-3.6-1.2-5.7h-0.2
		c-0.4,2.1-0.7,3.9-1.2,5.7l-2.2,9.1h-5.3L1038.3,620.1z"/>
	<path class="st1" d="M1070.7,634.5c0-4.2,3.5-6.4,11.6-7.3c-0.1-2.1-0.9-3.9-3.6-3.9c-2,0-3.8,0.9-5.5,1.9l-1.7-3.1
		c2.2-1.4,4.9-2.6,8.1-2.6c4.9,0,7.3,3,7.3,8.5v11.6h-3.8l-0.4-2.2h-0.1c-1.8,1.5-3.8,2.7-6.1,2.7
		C1073.1,640.2,1070.7,637.9,1070.7,634.5z M1082.3,634.5V630c-5.3,0.7-7.1,2.1-7.1,4c0,1.7,1.2,2.5,2.8,2.5
		C1079.6,636.6,1080.8,635.8,1082.3,634.5z"/>
	<path class="st1" d="M1094.4,620.1h3.8l0.4,3.5h0.1c1.4-2.6,3.5-4,5.6-4c1,0,1.6,0.1,2.2,0.4l-0.8,4c-0.7-0.2-1.2-0.3-2-0.3
		c-1.6,0-3.5,1.1-4.6,4.1v12h-4.6V620.1z"/>
	<path class="st1" d="M1109.8,629.9c0-6.4,4-10.3,8.3-10.3c2.2,0,3.6,0.8,5.2,2.2l-0.2-3.2v-7.1h4.6v28.3h-3.8l-0.4-2.1h-0.1
		c-1.5,1.5-3.5,2.6-5.6,2.6C1112.9,640.2,1109.8,636.4,1109.8,629.9z M1123.1,634.2V625c-1.3-1.2-2.7-1.6-4-1.6
		c-2.5,0-4.6,2.4-4.6,6.5c0,4.3,1.6,6.5,4.5,6.5C1120.5,636.4,1121.8,635.7,1123.1,634.2z"/>
	<path class="st1" d="M1144.2,636.9l12.7-19.5h-11.5v-3.9h17.2v2.8l-12.7,19.5h12.8v3.9h-18.5V636.9z"/>
	<path class="st1" d="M1168.9,611.5h4.6v7.3l-0.2,3.8c1.6-1.6,3.6-3,6.3-3c4.2,0,6,2.8,6,7.8v12.3h-4.6V628c0-3.2-0.9-4.4-3.1-4.4
		c-1.7,0-2.9,0.8-4.5,2.4v13.7h-4.6V611.5z"/>
	<path class="st1" d="M1192.2,634.5c0-4.2,3.5-6.4,11.6-7.3c-0.1-2.1-0.9-3.9-3.6-3.9c-2,0-3.8,0.9-5.5,1.9l-1.7-3.1
		c2.2-1.4,4.9-2.6,8.1-2.6c4.9,0,7.3,3,7.3,8.5v11.6h-3.8l-0.4-2.2h-0.1c-1.8,1.5-3.8,2.7-6.1,2.7
		C1194.5,640.2,1192.2,637.9,1192.2,634.5z M1203.7,634.5V630c-5.3,0.7-7.1,2.1-7.1,4c0,1.7,1.2,2.5,2.8,2.5
		C1201,636.6,1202.3,635.8,1203.7,634.5z"/>
	<path class="st1" d="M1215.9,620.1h3.8l0.4,2.7h0.1c1.8-1.7,3.8-3.1,6.4-3.1c4.2,0,6,2.8,6,7.8v12.3h-4.6V628
		c0-3.2-0.9-4.4-3.1-4.4c-1.7,0-2.9,0.8-4.5,2.4v13.7h-4.6V620.1z"/>
	<path class="st1" d="M1238.9,643.3c0-1.7,1-3.1,2.8-4.2v-0.2c-1-0.7-1.8-1.7-1.8-3.3c0-1.5,1-2.9,2.2-3.7v-0.2
		c-1.3-1-2.6-2.9-2.6-5.2c0-4.5,3.6-7.1,7.8-7.1c1.1,0,2.1,0.2,2.9,0.5h7v3.4h-3.6c0.6,0.7,1.1,2,1.1,3.3c0,4.4-3.3,6.7-7.5,6.7
		c-0.8,0-1.8-0.2-2.7-0.5c-0.6,0.5-1,1-1,1.9c0,1.1,0.8,1.8,3.2,1.8h3.5c4.7,0,7.2,1.5,7.2,4.8c0,3.9-4.1,6.9-10.5,6.9
		C1242.4,648.4,1238.9,646.7,1238.9,643.3z M1253.1,642.2c0-1.5-1.2-2-3.5-2h-2.7c-1.1,0-1.9-0.1-2.7-0.3c-1.1,0.8-1.5,1.7-1.5,2.6
		c0,1.8,1.9,2.8,5,2.8C1251,645.4,1253.1,643.9,1253.1,642.2z M1250.7,626.7c0-2.5-1.5-3.9-3.4-3.9c-1.9,0-3.4,1.4-3.4,3.9
		c0,2.5,1.5,4,3.4,4S1250.7,629.2,1250.7,626.7z"/>
</g>
</svg>
