<!-- Exported by Character Map UWP -->
<svg height="100%" viewBox="0 0 1013 716" width="100%" xmlns="http://www.w3.org/2000/svg" xmlns:xlink="http://www.w3.org/1999/xlink">
  <path d="M506.5,235.5C523.5,235.5 539.417,238.75 554.25,245.25C569.083,251.75 582,260.5 593,271.5C604,282.5 612.75,295.417 619.25,310.25C625.75,325.083 629,341 629,358C629,375 625.75,390.917 619.25,405.75C612.75,420.583 604,433.5 593,444.5C582,455.5 569.083,464.25 554.25,470.75C539.417,477.25 523.5,480.5 506.5,480.5C489.5,480.5 473.583,477.25 458.75,470.75C443.917,464.25 431,455.5 420,444.5C409,433.5 400.25,420.583 393.75,405.75C387.25,390.917 384,375 384,358C384,341 387.25,325.083 393.75,310.25C400.25,295.417 409,282.5 420,271.5C431,260.5 443.917,251.75 458.75,245.25C473.583,238.75 489.5,235.5 506.5,235.5ZM506.5,427.5C516.167,427.5 525.25,425.667 533.75,422C542.25,418.333 549.583,413.417 555.75,407.25C561.917,401.083 566.833,393.75 570.5,385.25C574.167,376.75 576,367.667 576,358C576,348.333 574.167,339.25 570.5,330.75C566.833,322.25 561.917,314.917 555.75,308.75C549.583,302.583 542.25,297.667 533.75,294C525.25,290.333 516.167,288.5 506.5,288.5C496.833,288.5 487.75,290.333 479.25,294C470.75,297.667 463.417,302.583 457.25,308.75C451.083,314.917 446.167,322.25 442.5,330.75C438.833,339.25 437,348.333 437,358C437,367.667 438.833,376.75 442.5,385.25C446.167,393.75 451.083,401.083 457.25,407.25C463.417,413.417 470.75,418.333 479.25,422C487.75,425.667 496.833,427.5 506.5,427.5ZM864.5,0C888.5,23.6667 909.667,49.3334 928,77C946.333,104.667 961.833,133.667 974.5,164C987.167,194.333 996.75,225.833 1003.25,258.5C1009.75,291.167 1013,324.333 1013,358C1013,391.667 1009.75,424.833 1003.25,457.5C996.75,490.167 987.167,521.667 974.5,552C961.833,582.333 946.333,611.333 928,639C909.667,666.667 888.5,692.333 864.5,716L827,678.5C848.333,657.167 867.25,634.167 883.75,609.5C900.25,584.833 914.083,558.833 925.25,531.5C936.417,504.167 944.917,475.917 950.75,446.75C956.583,417.583 959.5,388 959.5,358C959.5,328 956.583,298.417 950.75,269.25C944.917,240.083 936.417,211.833 925.25,184.5C914.083,157.167 900.25,131.167 883.75,106.5C867.25,81.8334 848.333,58.8334 827,37.5ZM186,37.5C164.667,58.8334 145.75,81.8334 129.25,106.5C112.75,131.167 98.8333,157.167 87.5,184.5C76.1667,211.833 67.5833,240.083 61.75,269.25C55.9167,298.417 53,328 53,358C53,388 55.9167,417.583 61.75,446.75C67.5833,475.917 76.1667,504.167 87.5,531.5C98.8333,558.833 112.75,584.833 129.25,609.5C145.75,634.167 164.667,657.167 186,678.5L148.5,716C124.5,692.333 103.333,666.667 85,639C66.6667,611.333 51.1667,582.333 38.5,552C25.8333,521.667 16.25,490.167 9.75,457.5C3.25,424.833 0,391.667 0,358C0,324.333 3.25,291.167 9.75,258.5C16.25,225.833 25.8333,194.333 38.5,164C51.1667,133.667 66.6667,104.667 85,77C103.333,49.3334 124.5,23.6667 148.5,0ZM729,135.5C758.667,165.5 781.417,199.583 797.25,237.75C813.083,275.917 821,316 821,358C821,400 813.083,440.083 797.25,478.25C781.417,516.417 758.667,550.5 729,580.5L691.5,543C716.167,518.333 735.083,490.083 748.25,458.25C761.417,426.417 768,393 768,358C768,323 761.417,289.583 748.25,257.75C735.083,225.917 716.167,197.667 691.5,173ZM321.5,173C296.833,197.667 277.917,225.917 264.75,257.75C251.583,289.583 245,323 245,358C245,393 251.583,426.417 264.75,458.25C277.917,490.083 296.833,518.333 321.5,543L284,580.5C254.333,550.5 231.583,516.417 215.75,478.25C199.917,440.083 192,400 192,358C192,316 199.917,275.917 215.75,237.75C231.583,199.583 254.333,165.5 284,135.5Z" fill="#000000">
  </path>
</svg>