<!-- Exported by Character Map UWP -->
<svg height="100%" viewBox="0 0 1024 1024" width="100%" xmlns="http://www.w3.org/2000/svg" xmlns:xlink="http://www.w3.org/1999/xlink">
  <path d="M512,0C559,0 604.333,6.08337 648,18.25C691.667,30.4167 732.5,47.5834 770.5,69.75C808.5,91.9167 843.083,118.583 874.25,149.75C905.417,180.917 932.083,215.5 954.25,253.5C976.417,291.5 993.583,332.333 1005.75,376C1017.92,419.667 1024,465 1024,512C1024,559 1017.92,604.333 1005.75,648C993.583,691.667 976.417,732.5 954.25,770.5C932.083,808.5 905.417,843.083 874.25,874.25C843.083,905.417 808.5,932.083 770.5,954.25C732.5,976.417 691.667,993.583 648,1005.75C604.333,1017.92 559,1024 512,1024C465,1024 419.667,1017.92 376,1005.75C332.333,993.583 291.5,976.417 253.5,954.25C215.5,932.083 180.917,905.417 149.75,874.25C118.583,843.083 91.9167,808.5 69.75,770.5C47.5833,732.5 30.4167,691.75 18.25,648.25C6.08333,604.75 0,559.333 0,512C0,465 6.08333,419.667 18.25,376C30.4167,332.333 47.5833,291.5 69.75,253.5C91.9167,215.5 118.583,180.917 149.75,149.75C180.917,118.583 215.5,91.9167 253.5,69.75C291.5,47.5834 332.25,30.4167 375.75,18.25C419.25,6.08337 464.667,0 512,0ZM916.5,320C903.833,293 888.5,267.583 870.5,243.75C852.5,219.917 832.5,198.167 810.5,178.5C788.5,158.833 764.667,141.333 739,126C713.333,110.667 686.5,98.1667 658.5,88.5C670.5,105.167 681.333,122.833 691,141.5C700.667,160.167 709.25,179.417 716.75,199.25C724.25,219.083 730.667,239.167 736,259.5C741.333,279.833 746,300 750,320ZM960,512C960,467.667 953.833,425 941.5,384L760,384C762.667,405.333 764.667,426.583 766,447.75C767.333,468.917 768,490.333 768,512C768,533.667 767.333,555.083 766,576.25C764.667,597.417 762.667,618.667 760,640L941.5,640C953.833,599 960,556.333 960,512ZM512,960C528.333,960 543.583,955.5 557.75,946.5C571.917,937.5 585,925.667 597,911C609,896.333 619.75,879.75 629.25,861.25C638.75,842.75 647.167,824 654.5,805C661.833,786 668,767.667 673,750C678,732.333 681.833,717 684.5,704L339.5,704C342.167,717 346,732.333 351,750C356,767.667 362.167,786 369.5,805C376.833,824 385.25,842.75 394.75,861.25C404.25,879.75 415,896.333 427,911C439,925.667 452.083,937.5 466.25,946.5C480.417,955.5 495.667,960 512,960ZM695.5,640C698.167,618.667 700.25,597.417 701.75,576.25C703.25,555.083 704,533.667 704,512C704,490.333 703.25,468.917 701.75,447.75C700.25,426.583 698.167,405.333 695.5,384L328.5,384C325.833,405.333 323.75,426.583 322.25,447.75C320.75,468.917 320,490.333 320,512C320,533.667 320.75,555.083 322.25,576.25C323.75,597.417 325.833,618.667 328.5,640ZM64,512C64,556.333 70.1667,599 82.5,640L264,640C261.333,618.667 259.333,597.417 258,576.25C256.667,555.083 256,533.667 256,512C256,490.333 256.667,468.917 258,447.75C259.333,426.583 261.333,405.333 264,384L82.5,384C70.1667,425 64,467.667 64,512ZM512,64C495.667,64.0001 480.417,68.5001 466.25,77.5C452.083,86.5001 439,98.3334 427,113C415,127.667 404.25,144.25 394.75,162.75C385.25,181.25 376.833,200 369.5,219C362.167,238 356,256.333 351,274C346,291.667 342.167,307 339.5,320L684.5,320C681.833,307 678,291.667 673,274C668,256.333 661.833,238 654.5,219C647.167,200 638.75,181.25 629.25,162.75C619.75,144.25 609,127.667 597,113C585,98.3334 571.917,86.5001 557.75,77.5C543.583,68.5001 528.333,64.0001 512,64ZM365.5,88.5C337.5,98.1667 310.667,110.667 285,126C259.333,141.333 235.5,158.833 213.5,178.5C191.5,198.167 171.5,219.917 153.5,243.75C135.5,267.583 120.167,293 107.5,320L274,320C278,300 282.667,279.833 288,259.5C293.333,239.167 299.75,219.083 307.25,199.25C314.75,179.417 323.333,160.167 333,141.5C342.667,122.833 353.5,105.167 365.5,88.5ZM107.5,704C120.167,731 135.5,756.417 153.5,780.25C171.5,804.083 191.5,825.833 213.5,845.5C235.5,865.167 259.333,882.667 285,898C310.667,913.333 337.5,925.833 365.5,935.5C353.5,918.833 342.667,901.167 333,882.5C323.333,863.833 314.75,844.583 307.25,824.75C299.75,804.917 293.333,784.833 288,764.5C282.667,744.167 278,724 274,704ZM658.5,935.5C686.5,925.833 713.333,913.333 739,898C764.667,882.667 788.5,865.167 810.5,845.5C832.5,825.833 852.5,804.083 870.5,780.25C888.5,756.417 903.833,731 916.5,704L750,704C746,724 741.333,744.167 736,764.5C730.667,784.833 724.25,804.917 716.75,824.75C709.25,844.583 700.667,863.833 691,882.5C681.333,901.167 670.5,918.833 658.5,935.5Z" fill="#000000">
  </path>
</svg>