<!-- Exported by Character Map UWP -->
<svg height="100%" viewBox="0 0 1024 1024" width="100%" xmlns="http://www.w3.org/2000/svg" xmlns:xlink="http://www.w3.org/1999/xlink">
  <path d="M648.5,19C703.833,34.0001 754.5,57.4168 800.5,89.25C846.5,121.083 886.083,158.75 919.25,202.25C952.417,245.75 978.167,293.917 996.5,346.75C1014.83,399.583 1024,454.667 1024,512C1024,559 1017.92,604.333 1005.75,648C993.583,691.667 976.417,732.5 954.25,770.5C932.083,808.5 905.417,843.083 874.25,874.25C843.083,905.417 808.5,932.083 770.5,954.25C732.5,976.417 691.667,993.583 648,1005.75C604.333,1017.92 559,1024 512,1024C465,1024 419.667,1017.92 376,1005.75C332.333,993.583 291.5,976.417 253.5,954.25C215.5,932.083 180.917,905.417 149.75,874.25C118.583,843.083 91.9167,808.5 69.75,770.5C47.5833,732.5 30.4167,691.75 18.25,648.25C6.08333,604.75 0,559.333 0,512C0,465.333 6.16667,420 18.5,376C30.8333,332 48.4167,290.583 71.25,251.75C94.0833,212.917 121.833,177.583 154.5,145.75C187.167,113.917 224,86.6667 265,64L128,64L128,0L384,0L384,256L320,256L320,107.5C281,126.167 245.75,149.583 214.25,177.75C182.75,205.917 155.833,237.583 133.5,272.75C111.167,307.917 94,345.833 82,386.5C70,427.167 64,469 64,512C64,553 69.3333,592.583 80,630.75C90.6667,668.917 105.75,704.583 125.25,737.75C144.75,770.917 168.167,801.167 195.5,828.5C222.833,855.833 253.083,879.25 286.25,898.75C319.417,918.25 355,933.333 393,944C431,954.667 470.667,960 512,960C553,960 592.583,954.667 630.75,944C668.917,933.333 704.583,918.25 737.75,898.75C770.917,879.25 801.167,855.833 828.5,828.5C855.833,801.167 879.25,770.917 898.75,737.75C918.25,704.583 933.333,669 944,631C954.667,593 960,553.333 960,512C960,462 951.917,413.833 935.75,367.5C919.583,321.167 897,279 868,241C839,203 804.417,170.083 764.25,142.25C724.083,114.417 679.833,93.8334 631.5,80.5L648.5,19Z" fill="#000000">
  </path>
</svg>